<?xml version="1.0" encoding="utf-8"?>
<!-- Generator: Adobe Illustrator 19.2.0, SVG Export Plug-In . SVG Version: 6.00 Build 0)  -->
<svg version="1.1" id="Camada_1" xmlns="http://www.w3.org/2000/svg" xmlns:xlink="http://www.w3.org/1999/xlink" x="0px" y="0px"
	 viewBox="0 0 30 30.8" style="enable-background:new 0 0 30 30.8;" xml:space="preserve">
<title>Search 544</title>
<desc>Created with Sketch.</desc>
<g>
	<g>
		<path d="M29,29c0.3,0.3,0.3,0.9,0,1.2c-0.3,0.3-0.7,0.3-1,0.1l0,0l0,0c0,0-0.1,0-0.1-0.1c0,0,0-0.1-0.1-0.1l-6.3-6.3
			c-5.1,3.8-12.3,3.4-16.9-1.2c-5.1-5.1-5.1-13.3,0-18.3c5.1-5.1,13.3-5.1,18.3,0c5.1,5.1,5.1,13.3,0,18.3c-0.1,0.1-0.1,0.1-0.2,0.2
			l6.2,6.2C28.9,28.9,29,28.9,29,29z M21.9,5.1C17.4,0.5,10,0.5,5.5,5.1C0.9,9.6,0.9,17,5.5,21.5c4.5,4.5,11.9,4.5,16.5,0
			C26.5,17,26.5,9.6,21.9,5.1z"/>
	</g>
</g>
</svg>
