<?xml version="1.0" encoding="utf-8"?>
<!-- Generator: Adobe Illustrator 19.2.0, SVG Export Plug-In . SVG Version: 6.00 Build 0)  -->
<svg version="1.1" id="Camada_1" xmlns="http://www.w3.org/2000/svg" xmlns:xlink="http://www.w3.org/1999/xlink" x="0px" y="0px"
	 viewBox="0 0 45 45" style="enable-background:new 0 0 45 45;" xml:space="preserve">
<g>
	<g>
		<path d="M24.1,45.2H1.2c-0.3,0-0.6-0.1-0.8-0.3c-0.2-0.2-0.3-0.5-0.3-0.8l3.5-33.7c0.1-0.5,0.5-0.9,1-0.9h24.6c0.5,0,1,0.4,1,0.9
			l1.3,12.4c0,0.3-0.1,0.6-0.3,0.8c-0.2,0.2-0.5,0.3-0.8,0.3h-3.3l-2.1,20.4C25.1,44.8,24.6,45.2,24.1,45.2z M2.3,43.1h20.8
			l2.1-20.4c0.1-0.5,0.5-0.9,1-0.9h3.1l-1.1-10.3H5.6L2.3,43.1z"/>
	</g>
	<g>
		<path d="M24.6,17.6c-0.6,0-1.1-0.5-1.1-1.1V8.8c0-3.6-2.9-6.6-6.6-6.6s-6.6,2.9-6.6,6.6v7.7c0,0.6-0.5,1.1-1.1,1.1
			s-1.1-0.5-1.1-1.1V8.8c0-4.8,3.9-8.7,8.7-8.7s8.7,3.9,8.7,8.7v7.7C25.7,17.1,25.2,17.6,24.6,17.6z"/>
	</g>
	<g>
		<path d="M44.1,45.2h-20c-0.3,0-0.6-0.1-0.8-0.3c-0.2-0.2-0.3-0.5-0.3-0.8l2.2-21.3c0.1-0.5,0.5-0.9,1-0.9h15.5c0.5,0,1,0.4,1,0.9
			L45.1,44c0,0.3-0.1,0.6-0.3,0.8C44.7,45,44.4,45.2,44.1,45.2z M25.3,43.1h17.6l-2-19.2H27.3L25.3,43.1z"/>
	</g>
	<g>
		<path d="M34.1,33.8c-2.6,0-4.8-2.1-4.8-4.8v-1.6c0-0.6,0.5-1.1,1.1-1.1s1.1,0.5,1.1,1.1V29c0,1.5,1.2,2.7,2.7,2.7
			c1.5,0,2.7-1.2,2.7-2.7v-1.6c0-0.6,0.5-1.1,1.1-1.1s1.1,0.5,1.1,1.1V29C38.9,31.7,36.7,33.8,34.1,33.8z"/>
	</g>
	<g>
		<path d="M44.1,45.2h-20c-0.3,0-0.6-0.1-0.8-0.3c-0.2-0.2-0.3-0.5-0.3-0.8l0.6-5.8c0.1-0.5,0.5-0.9,1-0.9h18.8c0.5,0,1,0.4,1,0.9
			l0.6,5.8c0,0.3-0.1,0.6-0.3,0.8C44.7,45,44.4,45.2,44.1,45.2z M25.3,43.1h17.6l-0.4-3.7H25.7L25.3,43.1z"/>
	</g>
	<g>
		<path d="M24.1,45.2H1.2c-0.3,0-0.6-0.1-0.8-0.3c-0.2-0.2-0.3-0.5-0.3-0.8l1-9.1c0.1-0.5,0.5-0.9,1-0.9h22.9c0.3,0,0.6,0.1,0.8,0.3
			c0.2,0.2,0.3,0.5,0.3,0.8l-1,9.1C25.1,44.8,24.6,45.2,24.1,45.2z M2.3,43.1h20.8l0.7-7H3.1L2.3,43.1z"/>
	</g>
</g>
</svg>
