<?xml version="1.0" encoding="utf-8"?>
<!-- Generator: Adobe Illustrator 19.2.0, SVG Export Plug-In . SVG Version: 6.00 Build 0)  -->
<svg version="1.1" id="Camada_1" xmlns="http://www.w3.org/2000/svg" xmlns:xlink="http://www.w3.org/1999/xlink" x="0px" y="0px"
	 viewBox="0 0 39.5 59.8" style="enable-background:new 0 0 39.5 59.8;" xml:space="preserve">
<title>icn_mar2017</title>
<path d="M6.3,28.2c-2.2,0-4-1.8-4-4V4.9l5.5-3.7l27.4,11c2.1,0.8,3.1,3.1,2.3,5.2c-0.8,2.1-3.1,3.1-5.2,2.3c0,0-0.1,0-0.1,0
	l-21.9-8.8v13.4C10.3,26.4,8.5,28.2,6.3,28.2z"/>
<path d="M33.7,39.3c-0.5,0-1-0.1-1.5-0.3l-27.4-11c-2-0.8-3-3.2-2.2-5.2c0.8-2,3.2-3,5.2-2.2l27.4,11c2,0.8,3,3.2,2.2,5.2
	C36.8,38.3,35.3,39.3,33.7,39.3L33.7,39.3z"/>
<path d="M33.7,58.6c-0.5,0-1-0.1-1.5-0.3l-27.4-11c-2-0.8-3-3.2-2.2-5.2c0.8-2,3.2-3,5.2-2.2l0,0l27.4,11c2,0.8,3,3.2,2.2,5.2
	C36.8,57.6,35.3,58.6,33.7,58.6L33.7,58.6z"/>
</svg>
